<svg xmlns="http://www.w3.org/2000/svg" width="800" height="800" class="icon flat-line" data-name="Flat Line" viewBox="0 0 24 24">
  <path d="M20 10h-.59a1 1 0 0 1-.94-.67 1 1 0 0 1 .2-1.14l.41-.41a1 1 0 0 0 0-1.42l-1.42-1.43a1 1 0 0 0-1.42 0l-.41.41a1 1 0 0 1-1.14.2 1 1 0 0 1-.69-.95V4a1 1 0 0 0-1-1h-2a1 1 0 0 0-1 1v.59a1 1 0 0 1-.67.94 1 1 0 0 1-1.14-.2l-.41-.41a1 1 0 0 0-1.42 0L4.93 6.34a1 1 0 0 0 0 1.42l.41.41a1 1 0 0 1 .2 1.14 1 1 0 0 1-.94.67H4a1 1 0 0 0-1 1v2a1 1 0 0 0 1 1h.59a1 1 0 0 1 .94.67 1 1 0 0 1-.2 1.14l-.41.41a1 1 0 0 0 0 1.42l1.41 1.41a1 1 0 0 0 1.42 0l.41-.41a1 1 0 0 1 1.14-.2 1 1 0 0 1 .67.94V20a1 1 0 0 0 1 1h2a1 1 0 0 0 1-1v-.59a1 1 0 0 1 .67-.94 1 1 0 0 1 1.14.2l.41.41a1 1 0 0 0 1.42 0l1.41-1.41a1 1 0 0 0 0-1.42l-.41-.41a1 1 0 0 1-.2-1.14 1 1 0 0 1 .94-.67H20a1 1 0 0 0 1-1V11a1 1 0 0 0-1-1Zm-8 5a3 3 0 1 1 3-3 3 3 0 0 1-3 3Z" style="fill:whitesmoke;stroke-width:2"/>
  <path d="M15 12a3 3 0 1 1-3-3 3 3 0 0 1 3 3Zm5-2h-.59a1 1 0 0 1-.94-.67v0a1 1 0 0 1 .2-1.14l.41-.41a1 1 0 0 0 0-1.42l-1.42-1.43a1 1 0 0 0-1.42 0l-.41.41a1 1 0 0 1-1.14.2h0a1 1 0 0 1-.69-.95V4a1 1 0 0 0-1-1h-2a1 1 0 0 0-1 1v.59a1 1 0 0 1-.67.94h0a1 1 0 0 1-1.14-.2l-.41-.41a1 1 0 0 0-1.42 0L4.93 6.34a1 1 0 0 0 0 1.42l.41.41a1 1 0 0 1 .2 1.14v0a1 1 0 0 1-.94.67H4a1 1 0 0 0-1 1v2a1 1 0 0 0 1 1h.59a1 1 0 0 1 .94.67v0a1 1 0 0 1-.2 1.14l-.41.41a1 1 0 0 0 0 1.42l1.41 1.41a1 1 0 0 0 1.42 0l.41-.41a1 1 0 0 1 1.14-.2h0a1 1 0 0 1 .67.94V20a1 1 0 0 0 1 1h2a1 1 0 0 0 1-1v-.59a1 1 0 0 1 .67-.94h0a1 1 0 0 1 1.14.2l.41.41a1 1 0 0 0 1.42 0l1.41-1.41a1 1 0 0 0 0-1.42l-.41-.41a1 1 0 0 1-.2-1.14v0a1 1 0 0 1 .94-.67H20a1 1 0 0 0 1-1V11a1 1 0 0 0-1-1Z" style="fill:none;stroke:#000;stroke-linecap:round;stroke-linejoin:round;stroke-width:2"/>
</svg>